<?xml version="1.0" standalone="no"?><!DOCTYPE svg PUBLIC "-//W3C//DTD SVG 1.1//EN" "http://www.w3.org/Graphics/SVG/1.1/DTD/svg11.dtd"><svg t="1622687503724" class="icon" viewBox="0 0 1024 1024" version="1.1" xmlns="http://www.w3.org/2000/svg" p-id="5367" xmlns:xlink="http://www.w3.org/1999/xlink" width="128" height="128"><defs><style type="text/css"></style></defs><path d="M888.685714 561.444571c2.048-16.237714 3.657143-32.694857 3.657143-49.444571 0-16.749714-1.609143-33.206857-3.657143-49.444571l107.300572-83.968a25.307429 25.307429 0 0 0 6.070857-32.475429L900.681143 170.422857c-6.363429-10.971429-19.529143-15.506286-30.939429-10.971428l-126.317714 50.980571a384.950857 384.950857 0 0 0-85.723429-49.956571L638.683429 26.112a26.112 26.112 0 0 0-25.380572-21.357714H410.404571a25.6 25.6 0 0 0-25.088 21.357714l-19.017142 134.363429a375.222857 375.222857 0 0 0-85.723429 49.956571L154.331429 159.524571a25.380571 25.380571 0 0 0-30.939429 10.898286L21.942857 346.112a25.380571 25.380571 0 0 0 6.070857 32.475429l107.008 83.968A398.116571 398.116571 0 0 0 131.437714 512c0 16.749714 1.536 33.206857 3.584 49.444571L28.013714 645.412571a25.307429 25.307429 0 0 0-6.070857 32.475429l101.376 175.689143c6.363429 10.971429 19.529143 15.506286 30.939429 10.971428l126.317714-50.980571c26.112 19.968 54.857143 37.010286 85.723429 49.956571l19.017142 134.363429a25.6 25.6 0 0 0 25.088 21.357714h202.898286a25.6 25.6 0 0 0 25.088-21.357714l19.017143-134.363429a375.222857 375.222857 0 0 0 85.723429-49.956571l126.317714 50.907429c11.410286 4.388571 24.576 0 30.939428-10.898286l101.449143-175.689143a25.380571 25.380571 0 0 0-6.070857-32.475429L888.685714 561.444571zM511.926857 689.517714A177.371429 177.371429 0 0 1 334.336 512a177.371429 177.371429 0 0 1 177.517714-177.517714A177.371429 177.371429 0 0 1 689.371429 512a177.371429 177.371429 0 0 1-177.517715 177.517714z" fill="#666" p-id="5368"></path></svg>